# xmcd
# 
# Track frame offsets:
#     150
#     18227
#     35750
#     59220
#     73837
#     95802
#     116962
#     141055
#     166400
#     181557
# 
# Disc length: 2657
# 
# Revision: 5
# Processed by: cddbd v1.5.2PL0 Copyright (c) Steve Scherf et al.
# Submitted via: BonkEnc v1.0.8
# 
DISCID=940a5f0a
DTITLE=Elton John - Greatest Hits
DYEAR=1984
DGENRE=Rock
TTITLE0=Your Song
TTITLE1=Daniel
TTITLE2=Honky Cat
TTITLE3=Goodbye Yellow Brick Road
TTITLE4=Saturday Night's Alright For Fighting
TTITLE5=Rocket Man
TTITLE6=Bennie And The Jets
TTITLE7=Don't Let The Sun Go Down On Me
TTITLE8=Border Song
TTITLE9=Crocodile Rock
EXTD=
EXTT0=
EXTT1=
EXTT2=
EXTT3=
EXTT4=
EXTT5=
EXTT6=
EXTT7=
EXTT8=
EXTT9=
PLAYORDER=
